<svg xmlns="http://www.w3.org/2000/svg" width="16" height="16" viewBox="0 0 16 16">
  <g id="Group_336" data-name="Group 336" transform="translate(-1122 -870)">
    <rect id="Rectangle_574" data-name="Rectangle 574" width="16" height="16" transform="translate(1122 870)" fill="none"/>
    <g id="_49._Lock" data-name="49. Lock" transform="translate(1121 870)">
      <path id="Path_418" data-name="Path 418" d="M13,5.333V4A4,4,0,1,0,5,4V5.333a2.006,2.006,0,0,0-2,2V12a4,4,0,0,0,4,4h4a4,4,0,0,0,4-4V7.333A2.006,2.006,0,0,0,13,5.333ZM6.333,4a2.667,2.667,0,0,1,5.333,0V5.333H6.333Zm3.333,8a.667.667,0,1,1-1.333,0V9.333a.667.667,0,0,1,1.333,0Z" fill="#fcc827"/>
    </g>
  </g>
</svg>
